<?xml version="1.0" encoding="UTF-8"?>
<svg id="Layer_1" data-name="Layer 1" xmlns="http://www.w3.org/2000/svg" xmlns:xlink="http://www.w3.org/1999/xlink" viewBox="0 0 156.29 196.91">
  <defs>
    <style>
      .cls-1 {
        stroke-width: 1.46px;
      }

      .cls-1, .cls-2 {
        fill: none;
        stroke: #5a585a;
        stroke-linecap: round;
        stroke-miterlimit: 10;
      }

      .cls-3 {
        fill: #5a585a;
      }

      .cls-4 {
        clip-path: url(#clippath);
      }

      .cls-2 {
        stroke-width: 1.86px;
      }
    </style>
    <clipPath id="clippath">
      <path class="cls-2" d="M86.94,69.94c-8.94-8.75-21.87-10.92-32.8-6.56-1.23,.7-2.5,1.31-3.8,1.83-10.92,4.35-23.85,2.19-32.8-6.56-.46-.45-.9-.92-1.33-1.39,3.87,11,10.19,21.31,18.97,30.09,.21,.21,.42,.42,.63,.63,14.99,14.67,34.25,22.29,53.69,22.92,9.66-12.14,8.76-29.86-2.57-40.95Z"/>
    </clipPath>
  </defs>
  <g>
    <g>
      <path class="cls-2" d="M84,60.92c10.75,4.76,18.25,15.51,18.25,28.03,0,.65-.03,1.28-.07,1.92,5.15-10.46,8.1-22.19,8.23-34.6-5.05,3.67-11.27,5.84-17.99,5.84-2.92,0-5.75-.42-8.43-1.18Z"/>
      <path class="cls-2" d="M61.78,31.46c0,12.51,7.5,23.27,18.25,28.03,1.36,.39,2.69,.87,3.97,1.44,2.68,.76,5.5,1.18,8.43,1.18,6.72,0,12.94-2.17,17.99-5.84,0-.3,.01-.6,.01-.89,0-20.98-8.03-40.07-21.18-54.39-15.43,1.59-27.47,14.63-27.47,30.48Z"/>
      <path class="cls-2" d="M80.03,59.49c1.28,.57,2.6,1.05,3.97,1.44-1.28-.57-2.6-1.05-3.97-1.44Z"/>
    </g>
    <circle class="cls-2" cx="78" cy="23.15" r="4.58"/>
    <polyline class="cls-2" points="66.01 15.91 46.37 27.73 62.34 37.34"/>
    <g>
      <g>
        <g class="cls-4">
          <polyline class="cls-1" points="22.05 60.92 98.95 60.92 98.95 110.89 22.05 110.89"/>
          <g>
            <rect class="cls-2" x="9.44" y="40.28" width="98.5" height="76.73"/>
            <line class="cls-2" x1="9.44" y1="111.89" x2="107.94" y2="111.89"/>
            <line class="cls-2" x1="9.44" y1="60.74" x2="107.94" y2="60.74"/>
            <line class="cls-2" x1="9.44" y1="55.62" x2="107.94" y2="55.62"/>
            <line class="cls-2" x1="9.44" y1="50.51" x2="107.94" y2="50.51"/>
            <line class="cls-2" x1="9.44" y1="45.39" x2="107.94" y2="45.39"/>
          </g>
          <path class="cls-3" d="M29.92,31.82c-.77-1.56,3.86-1.5,4.58-1.5,1.68,0,3.56,.25,4.69,1.64,2.42,2.95,.79,7.56-1.66,9.9s-6.23,3.7-9.44,2.82c-1.7-.46-2.76-1.62-2.64-3.45,.14-2.12,.94-4.3,1.45-6.36,1.05-4.23,2.09-8.45,3.14-12.68,.83-3.34,1.52-7.43-1.67-9.8-2.93-2.17-6.18,0-7.51,2.87-1.61,3.48-.72,7.04,1.15,10.2,2.46,4.17,5.22,8.19,7.83,12.27,1.33,2.08,2.67,4.16,4,6.24,.42,.65,3.28,4.24,2.1,5.1s-.04,2.86,1.16,1.98c3.43-2.5-.55-7.11-2.08-9.5-2.67-4.16-5.34-8.32-8-12.49-2.33-3.64-6.19-8.07-4.18-12.66,.79-1.82,2.75-3.68,4.56-1.85,1.65,1.68,1.07,4.29,.58,6.33-1.14,4.78-2.36,9.54-3.54,14.31-.89,3.59-2.77,8.4,1.15,10.87,2.98,1.88,7.01,1.17,10.03-.22,3.6-1.65,6.37-4.96,6.91-8.93,.58-4.32-1.73-8.2-6.19-8.79-1.98-.26-4.53-.32-6.42,.39s-2.89,2.61-1.98,4.44c.66,1.32,2.64,.16,1.98-1.16h0Z"/>
          <g>
            <circle class="cls-2" cx="87.15" cy="65.37" r="58.47"/>
            <circle class="cls-2" cx="87.15" cy="65.37" r="48.72"/>
            <circle class="cls-2" cx="87.15" cy="65.37" r="38.98"/>
            <circle class="cls-2" cx="87.15" cy="65.37" r="29.23"/>
            <circle class="cls-2" cx="87.15" cy="65.37" r="19.49"/>
            <circle class="cls-2" cx="87.15" cy="65.37" r="9.74"/>
          </g>
        </g>
        <path class="cls-2" d="M86.94,69.94c-8.94-8.75-21.87-10.92-32.8-6.56-1.23,.7-2.5,1.31-3.8,1.83-10.92,4.35-23.85,2.19-32.8-6.56-.46-.45-.9-.92-1.33-1.39,3.87,11,10.19,21.31,18.97,30.09,.21,.21,.42,.42,.63,.63,14.99,14.67,34.25,22.29,53.69,22.92,9.66-12.14,8.76-29.86-2.57-40.95Z"/>
      </g>
      <path class="cls-2" d="M54.15,63.38c-1.3,.52-2.57,1.13-3.8,1.83,1.3-.52,2.57-1.13,3.8-1.83Z"/>
    </g>
  </g>
  <g>
    <path class="cls-3" d="M12.75,134.69H3.09v7.92H11.73v2.55H3.09v8.16H12.75v2.55H0v-23.73H12.75v2.55Z"/>
    <path class="cls-3" d="M36.07,132.14v23.73h-3.09l-12.44-18.87v18.87h-3.09v-23.73h3.09l12.44,18.83v-18.83h3.09Z"/>
    <path class="cls-3" d="M48.86,156.11c-4.76,0-8.12-2.65-8.19-6.56h3.3c.2,1.97,1.6,3.94,4.9,3.94,2.99,0,4.76-1.7,4.76-3.94,0-6.39-12.82-2.31-12.82-11.12,0-3.91,3.16-6.56,7.85-6.56s7.48,2.48,7.85,6.09h-3.4c-.2-1.6-1.7-3.4-4.59-3.43-2.55-.07-4.56,1.26-4.56,3.81,0,6.12,12.78,2.31,12.78,11.08,0,3.37-2.75,6.7-7.89,6.7Z"/>
    <path class="cls-3" d="M74.05,134.69h-9.66v7.92h8.64v2.55h-8.64v8.16h9.66v2.55h-12.75v-23.73h12.75v2.55Z"/>
    <path class="cls-3" d="M78.74,132.34h3.33l8.7,19.45,8.7-19.45h3.3v23.53h-3.09v-17.54l-7.82,17.54h-2.18l-7.85-17.58v17.58h-3.09v-23.53Z"/>
    <path class="cls-3" d="M116.85,155.87h-8.84v-23.7h8.5c5,0,7.51,2.72,7.51,6.02,0,2.99-1.87,4.72-4.15,5.47,2.58,.44,4.69,2.92,4.69,5.85,0,3.57-2.82,6.36-7.72,6.36Zm-.61-21.15h-5.13v7.68h5.2c2.89,0,4.56-1.43,4.56-3.84s-1.6-3.84-4.62-3.84Zm.24,10.23h-5.37v8.36h5.47c3.06,0,4.9-1.53,4.9-4.11s-1.97-4.25-5-4.25Z"/>
    <path class="cls-3" d="M131.95,132.17v21.18h8.29v2.52h-11.39v-23.7h3.09Z"/>
    <path class="cls-3" d="M156.29,134.69h-9.65v7.92h8.63v2.55h-8.63v8.16h9.65v2.55h-12.75v-23.73h12.75v2.55Z"/>
    <path class="cls-3" d="M33.39,186.78h-4.56v9.89h-3.09v-23.7h7.65c5.58,0,8.19,3.06,8.19,6.93,0,3.6-2.31,6.87-8.19,6.87Zm0-2.55c3.54,0,5.03-1.67,5.03-4.32s-1.5-4.38-5.03-4.38h-4.56v8.7h4.56Z"/>
    <path class="cls-3" d="M48.52,172.97v21.18h8.29v2.52h-11.39v-23.7h3.09Z"/>
    <path class="cls-3" d="M60.04,172.97h3.09v14.99c0,4.35,2.35,6.22,5.85,6.22s5.81-1.87,5.81-6.22v-14.99h3.09v14.96c0,6.15-4.05,8.98-8.94,8.98s-8.91-2.82-8.91-8.98v-14.96Z"/>
    <path class="cls-3" d="M83.06,173.14h3.33l8.7,19.45,8.7-19.45h3.3v23.53h-3.09v-17.54l-7.82,17.54h-2.18l-7.85-17.58v17.58h-3.09v-23.53Z"/>
    <path class="cls-3" d="M126.34,191.4h-10.33l-1.9,5.27h-3.26l8.57-23.56h3.57l8.53,23.56h-3.26l-1.9-5.27Zm-5.17-14.48l-4.28,11.97h8.57l-4.28-11.97Z"/>
  </g>
</svg>